<svg xmlns="http://www.w3.org/2000/svg" viewBox="0 0 217.04 47.49"><defs><style>.cls-1{fill:#fff;}</style></defs><title>mermaid-final-26June</title><g id="white-mermaid"><path class="cls-1" d="M33,32.64s.23-.92-2.41-2.26c-1.57-.8-3.1-.62-4.68-1.1s-5.56-2.15-5.56-2.15a24.07,24.07,0,0,0-2.49-2.77,14,14,0,0,0-2.68-1.88,4.88,4.88,0,0,0-.93,1.1,6.64,6.64,0,0,0-.77,1.61s3.39,4.29,7,5.43a15.33,15.33,0,0,0,5.14,1c.33,0,2.58.14,3.94.17A8.72,8.72,0,0,1,33,32.64Z" transform="translate(-1.67 -0.84)"/><path class="cls-1" d="M36.78,38.66a4.59,4.59,0,0,0-2.61-4.43c1,3.52-2.11,6-2.11,6a17,17,0,0,1-5,1.85C23.35,43.06,19,39.2,19,39.2a20.54,20.54,0,0,1-3-2.94c-1.8-2.08-2.42-3.08-2.94-4.88a17.88,17.88,0,0,1-.43-5.5,5.35,5.35,0,0,1,.57-2.19,12.33,12.33,0,0,0,1.49-2.46c.12-.62-.57-.49-.57-.49s-2.51,1.47-3.62-.52c-.73-1.31-.43-2.5-1.46-2.85,0,0-1,4.1-3.95,4.88-2.17.57-2.34-1.84-2.34-1.84a36.8,36.8,0,0,0-1,4.8,22,22,0,0,0,.86,8c1,3.63,3.39,6.83,6,9.41a18.41,18.41,0,0,0,9.88,5.46c3.49.74,9-.11,11.77-1.9a13.42,13.42,0,0,0,3.15-3h0c2.72-1.55,7.49-.22,7.49-.22C41,40.39,36.78,38.66,36.78,38.66Z" transform="translate(-1.67 -0.84)"/><path class="cls-1" d="M17.63,4.5c1.94-2.23,1.38-3,1.38-3a8.72,8.72,0,0,1-2.89,2.07c-1.26.54-3.28,1.54-3.59,1.64A15.33,15.33,0,0,0,8.15,8.08c-2.9,2.41-4.44,7.66-4.44,7.66l-.18.69a10.09,10.09,0,0,0-.13,2.45A3.91,3.91,0,0,0,4.53,21.1c.24.34,1.82-.65,2.8-2.14S8,16.6,8,16.6l-.41-.74a10.13,10.13,0,0,0,.54-1,24.07,24.07,0,0,0,1.27-3.5s3.06-3,4.35-4.08S16.47,5.83,17.63,4.5Z" transform="translate(-1.67 -0.84)"/><polygon class="cls-1" points="45.16 17.39 39.35 7.33 33.55 17.39 45.16 17.39"/><circle class="cls-1" cx="31.45" cy="6.08" r="5.24" transform="translate(3.83 24.01) rotate(-46.82)"/><rect class="cls-1" x="37.07" y="22.54" width="9.16" height="9.16" transform="translate(88.7 16.41) rotate(135.48)"/><path class="cls-1" d="M21.78,14.08l-3.63,1.38a3.64,3.64,0,0,1,0,1.45c1.31-.34,3.7-1,5-1.37a11.26,11.26,0,0,1,3.93-.35A2.53,2.53,0,0,0,26,13.59a4.19,4.19,0,0,0-1.43-.22A6.92,6.92,0,0,0,21.78,14.08Z" transform="translate(-1.67 -0.84)"/><path class="cls-1" d="M25,18a4.8,4.8,0,0,0,1.74-.43c.33-.31-.43-1.68-.43-1.68a8.32,8.32,0,0,0-1,0,26.32,26.32,0,0,0-3.75.81L18,17.5a4,4,0,0,1-.44.83l3.7.11Z" transform="translate(-1.67 -0.84)"/><path class="cls-1" d="M18.63,11.69c-.35.22-1.31,1-2,1.54a3.5,3.5,0,0,1,.58.46A22.27,22.27,0,0,1,22,11a7.71,7.71,0,0,1,3,.07s.58.44-.51-.64-1.81-1-1.81-1a5.08,5.08,0,0,0-1.22.39A33.38,33.38,0,0,0,18.63,11.69Z" transform="translate(-1.67 -0.84)"/><path class="cls-1" d="M23.88,12.77c1.08-.22,1.21-.1,1.21-.1a2.29,2.29,0,0,0-.29-.67s-.08-.27-.81-.42a5.18,5.18,0,0,0-2.33.21,31.65,31.65,0,0,0-4.07,2.34c0,.06.1.1.13.17a3.45,3.45,0,0,1,.26.56l2.7-1A25.9,25.9,0,0,1,23.88,12.77Z" transform="translate(-1.67 -0.84)"/><path class="cls-1" d="M16.21,10.73a16.18,16.18,0,0,0-1.64,1.86,3.81,3.81,0,0,1,1.48.32c.8-.63,2.12-1.66,3-2.29a15.82,15.82,0,0,1,3.1-1.69s-.49-.76-1-.85-.77.17-1.93.71A17.26,17.26,0,0,0,16.21,10.73Z" transform="translate(-1.67 -0.84)"/><path class="cls-1" d="M28,17.87l-.79.25c-.35.11-3,.55-3.92.71A28.41,28.41,0,0,1,19,19L17,19a4.22,4.22,0,0,1-.51.41c1.51.42,4.49,1.24,6,1.46a13.85,13.85,0,0,0,5-.35c.76-.19,1-.26,1.1-.93A3.3,3.3,0,0,0,28,17.87Z" transform="translate(-1.67 -0.84)"/><path class="cls-1" d="M12.4,13.21a4.17,4.17,0,0,1,1.3-.5,21,21,0,0,1,2.85-3.08,20.1,20.1,0,0,1,3.3-1.89s-1-1-2.94,0a10.08,10.08,0,0,0-3.21,2.61s-2.84,3.76-3,4.85c0,.06,0,.1,0,.16A4.09,4.09,0,0,1,12.4,13.21Z" transform="translate(-1.67 -0.84)"/><path class="cls-1" d="M22.07,21.41s-5.38-1.29-5.8-1.43a4.06,4.06,0,0,1-.5-.22,4.11,4.11,0,0,1-.92.29,23.67,23.67,0,0,0,5,2.15,10.47,10.47,0,0,0,4.94.43,1.88,1.88,0,0,0,1.69-1.32A23.28,23.28,0,0,1,22.07,21.41Z" transform="translate(-1.67 -0.84)"/><ellipse class="cls-1" cx="14.34" cy="16.37" rx="3.35" ry="3.09" transform="translate(-8.1 9.03) rotate(-31.42)"/></g><g id="text2"><path class="cls-1" d="M86.86,36.83H84.37a.33.33,0,0,1-.35-.35V19.4L77,30.81c-.1.17-.21.35-.42.35h-2c-.21,0-.32-.17-.42-.35l-7-11.41V36.48a.33.33,0,0,1-.35.35H64.32a.33.33,0,0,1-.35-.35V13.35a.33.33,0,0,1,.35-.35H66.8c.21,0,.25.17.35.35L75.59,27.1,84,13.35c.1-.18.14-.35.35-.35h2.49a.33.33,0,0,1,.35.35V36.48A.33.33,0,0,1,86.86,36.83Z" transform="translate(-1.67 -0.84)"/><path class="cls-1" d="M109.75,36.83H93.16a.33.33,0,0,1-.35-.35V13.35a.33.33,0,0,1,.35-.35h16.59a.33.33,0,0,1,.35.35v2.24a.33.33,0,0,1-.35.35H96.1v7.46h11.8a.33.33,0,0,1,.35.35V26a.33.33,0,0,1-.35.35H96.1v7.56h13.65a.33.33,0,0,1,.35.35v2.24A.33.33,0,0,1,109.75,36.83Z" transform="translate(-1.67 -0.84)"/><path class="cls-1" d="M125.6,27.73l6,8.65c.14.21.14.46-.14.46h-3.19a.73.73,0,0,1-.59-.35l-6-8.68h-4.83v8.68a.33.33,0,0,1-.35.35h-2.59a.33.33,0,0,1-.35-.35V13.35a.33.33,0,0,1,.35-.35h10.75a7.39,7.39,0,0,1,.91,14.74Zm3.19-7.32a4.71,4.71,0,0,0-4.8-4.48h-7.11v8.93H124a4.71,4.71,0,0,0,4.8-4.48Z" transform="translate(-1.67 -0.84)"/><path class="cls-1" d="M159.06,36.83h-2.49a.33.33,0,0,1-.35-.35V19.4l-7,11.41c-.1.17-.21.35-.42.35h-2c-.21,0-.32-.17-.42-.35l-7-11.41V36.48a.33.33,0,0,1-.35.35h-2.49a.33.33,0,0,1-.35-.35V13.35a.33.33,0,0,1,.35-.35H139c.21,0,.25.17.35.35l8.44,13.76,8.44-13.76c.11-.18.14-.35.35-.35h2.49a.33.33,0,0,1,.35.35V36.48A.33.33,0,0,1,159.06,36.83Z" transform="translate(-1.67 -0.84)"/><path class="cls-1" d="M183,36.83h-2.59a.35.35,0,0,1-.35-.35V28.75H168v7.74a.33.33,0,0,1-.35.35H165a.33.33,0,0,1-.35-.35V23.08c0-5,2.91-10.4,9.35-10.4s9.31,5.39,9.31,10.4V36.48A.33.33,0,0,1,183,36.83ZM180,23c0-4.13-2.21-7.14-6-7.14S168,18.88,168,23v2.8H180Z" transform="translate(-1.67 -0.84)"/><path class="cls-1" d="M191.51,36.83h-2.59a.33.33,0,0,1-.35-.35V13.35a.33.33,0,0,1,.35-.35h2.59a.33.33,0,0,1,.35.35V36.48A.33.33,0,0,1,191.51,36.83Z" transform="translate(-1.67 -0.84)"/><path class="cls-1" d="M206.42,36.83h-8.61a.33.33,0,0,1-.35-.35V13.35a.33.33,0,0,1,.35-.35h8.61A12.13,12.13,0,0,1,218.7,24.9,12,12,0,0,1,206.42,36.83Zm0-20.69h-5.67V33.68h5.67a8.77,8.77,0,1,0,0-17.54Z" transform="translate(-1.67 -0.84)"/></g></svg>