<svg width="217" height="51" viewBox="0 0 217 51" fill="none" xmlns="http://www.w3.org/2000/svg">
<path d="M83.8906 24.0888H81.4007C81.3539 24.0917 81.3071 24.0847 81.2633 24.0681C81.2195 24.0516 81.1798 24.0259 81.1467 23.9928C81.1135 23.9597 81.0879 23.9199 81.0713 23.8761C81.0548 23.8323 81.0477 23.7855 81.0506 23.7388V6.65879L74.0306 18.0688C73.9306 18.2388 73.8206 18.4188 73.6106 18.4188H71.6106C71.4006 18.4188 71.2907 18.2488 71.1907 18.0688L64.1907 6.65879V23.7388C64.1936 23.7855 64.1865 23.8323 64.17 23.8761C64.1534 23.9199 64.1277 23.9597 64.0946 23.9928C64.0615 24.0259 64.0218 24.0516 63.978 24.0681C63.9342 24.0847 63.8874 24.0917 63.8406 24.0888H61.3506C61.3039 24.0917 61.2571 24.0847 61.2133 24.0681C61.1695 24.0516 61.1298 24.0259 61.0967 23.9928C61.0636 23.9597 61.0379 23.9199 61.0213 23.8761C61.0048 23.8323 60.9977 23.7855 61.0006 23.7388V0.608789C60.9977 0.562065 61.0048 0.515253 61.0213 0.471461C61.0379 0.427669 61.0636 0.387901 61.0967 0.354797C61.1298 0.321693 61.1695 0.296012 61.2133 0.279459C61.2571 0.262906 61.3039 0.25586 61.3506 0.258789H63.8306C64.0406 0.258789 64.0806 0.428789 64.1806 0.608789L72.6206 14.3588L81.0306 0.608789C81.1306 0.428789 81.1706 0.258789 81.3806 0.258789H83.8706C83.9174 0.25586 83.9642 0.262906 84.008 0.279459C84.0518 0.296012 84.0915 0.321693 84.1246 0.354797C84.1577 0.387901 84.1834 0.427669 84.2 0.471461C84.2165 0.515253 84.2236 0.562065 84.2206 0.608789V23.7388C84.2234 23.7838 84.2169 23.8288 84.2015 23.8712C84.1862 23.9136 84.1623 23.9524 84.1314 23.9852C84.1004 24.018 84.0631 24.0441 84.0217 24.0619C83.9803 24.0797 83.9357 24.0889 83.8906 24.0888Z" fill="white"/>
<path d="M106.162 24.0888H89.572C89.5252 24.0917 89.4784 24.0847 89.4346 24.0681C89.3908 24.0516 89.3511 24.0259 89.318 23.9928C89.2849 23.9597 89.2592 23.9199 89.2426 23.8761C89.2261 23.8323 89.219 23.7855 89.222 23.7388V0.608789C89.219 0.562065 89.2261 0.515253 89.2426 0.471461C89.2592 0.427669 89.2849 0.387901 89.318 0.354797C89.3511 0.321693 89.3908 0.296012 89.4346 0.279459C89.4784 0.262906 89.5252 0.25586 89.572 0.258789H106.162C106.209 0.25586 106.256 0.262906 106.299 0.279459C106.343 0.296012 106.383 0.321693 106.416 0.354797C106.449 0.387901 106.475 0.427669 106.491 0.471461C106.508 0.515253 106.515 0.562065 106.512 0.608789V2.84879C106.515 2.89551 106.508 2.94233 106.491 2.98612C106.475 3.02991 106.449 3.06968 106.416 3.10278C106.383 3.13588 106.343 3.16157 106.299 3.17812C106.256 3.19467 106.209 3.20172 106.162 3.19879H92.512V10.6588H104.312C104.359 10.6559 104.406 10.6629 104.449 10.6795C104.493 10.696 104.533 10.7217 104.566 10.7548C104.599 10.7879 104.625 10.8277 104.641 10.8715C104.658 10.9153 104.665 10.9621 104.662 11.0088V13.2588C104.665 13.3055 104.658 13.3523 104.641 13.3961C104.625 13.4399 104.599 13.4797 104.566 13.5128C104.533 13.5459 104.493 13.5716 104.449 13.5881C104.406 13.6047 104.359 13.6117 104.312 13.6088H92.512V21.1688H106.162C106.209 21.1659 106.256 21.1729 106.299 21.1895C106.343 21.206 106.383 21.2317 106.416 21.2648C106.449 21.2979 106.475 21.3377 106.491 21.3815C106.508 21.4253 106.515 21.4721 106.512 21.5188V23.7588C106.512 23.8039 106.503 23.8485 106.485 23.8899C106.467 23.9313 106.441 23.9686 106.408 23.9995C106.376 24.0304 106.337 24.0543 106.294 24.0697C106.252 24.085 106.207 24.0915 106.162 24.0888Z" fill="white"/>
<path d="M123.553 14.9898L129.553 23.6398C129.693 23.8498 129.693 24.0998 129.413 24.0998H126.223C126.104 24.0943 125.987 24.0595 125.885 23.9985C125.782 23.9374 125.695 23.8521 125.633 23.7498L119.633 15.0698H114.803V23.7498C114.806 23.7966 114.799 23.8434 114.783 23.8872C114.766 23.931 114.74 23.9707 114.707 24.0038C114.674 24.0369 114.634 24.0626 114.591 24.0792C114.547 24.0957 114.5 24.1028 114.453 24.0998H111.863C111.817 24.1028 111.77 24.0957 111.726 24.0792C111.682 24.0626 111.642 24.0369 111.609 24.0038C111.576 23.9707 111.55 23.931 111.534 23.8872C111.517 23.8434 111.51 23.7966 111.513 23.7498V0.609847C111.51 0.563123 111.517 0.516311 111.534 0.472519C111.55 0.428727 111.576 0.388959 111.609 0.355855C111.642 0.322751 111.682 0.29707 111.726 0.280517C111.77 0.263964 111.817 0.256918 111.863 0.259847H122.613C124.521 0.218881 126.371 0.917715 127.776 2.21002C129.18 3.50232 130.03 5.28787 130.148 7.19278C130.265 9.09769 129.641 10.9742 128.407 12.4295C127.172 13.8847 125.422 14.8058 123.523 14.9998L123.553 14.9898ZM126.743 7.66985C126.684 6.44525 126.149 5.29216 125.253 4.45561C124.356 3.61905 123.169 3.16497 121.943 3.18985H114.833V12.1198H121.953C123.179 12.1447 124.366 11.6906 125.263 10.8541C126.159 10.0175 126.694 8.86444 126.753 7.63985L126.743 7.66985Z" fill="white"/>
<path d="M158.033 24.0888H155.543C155.496 24.0917 155.449 24.0847 155.405 24.0681C155.361 24.0516 155.322 24.0259 155.289 23.9928C155.255 23.9597 155.23 23.9199 155.213 23.8761C155.197 23.8323 155.19 23.7855 155.193 23.7388V6.65879L148.193 18.0688C148.093 18.2388 147.983 18.4188 147.773 18.4188H145.773C145.563 18.4188 145.453 18.2488 145.353 18.0688L138.353 6.65879V23.7388C138.355 23.7855 138.348 23.8323 138.332 23.8761C138.315 23.9199 138.29 23.9597 138.257 23.9928C138.223 24.0259 138.184 24.0516 138.14 24.0681C138.096 24.0847 138.049 24.0917 138.003 24.0888H135.512C135.466 24.0917 135.419 24.0847 135.375 24.0681C135.331 24.0516 135.292 24.0259 135.259 23.9928C135.225 23.9597 135.2 23.9199 135.183 23.8761C135.167 23.8323 135.16 23.7855 135.163 23.7388V0.608789C135.16 0.562065 135.167 0.515253 135.183 0.471461C135.2 0.427669 135.225 0.387901 135.259 0.354797C135.292 0.321693 135.331 0.296012 135.375 0.279459C135.419 0.262906 135.466 0.25586 135.512 0.258789H137.973C138.183 0.258789 138.223 0.428789 138.323 0.608789L146.762 14.3688L155.202 0.608789C155.312 0.428789 155.343 0.258789 155.553 0.258789H158.043C158.089 0.25586 158.136 0.262906 158.18 0.279459C158.224 0.296012 158.263 0.321693 158.296 0.354797C158.33 0.387901 158.355 0.427669 158.372 0.471461C158.388 0.515253 158.395 0.562065 158.393 0.608789V23.7388C158.396 23.7864 158.388 23.8342 158.371 23.8787C158.354 23.9233 158.327 23.9636 158.293 23.9968C158.259 24.0301 158.218 24.0556 158.173 24.0714C158.128 24.0873 158.08 24.0932 158.033 24.0888Z" fill="white"/>
<path d="M181.744 24.4081H179.154C179.061 24.4081 178.972 24.3713 178.906 24.3056C178.841 24.24 178.804 24.151 178.804 24.0581V16.3281H166.744V24.0681C166.747 24.1149 166.74 24.1617 166.723 24.2055C166.707 24.2493 166.681 24.289 166.648 24.3221C166.615 24.3552 166.575 24.3809 166.531 24.3975C166.487 24.414 166.441 24.4211 166.394 24.4181H163.744C163.697 24.4211 163.65 24.414 163.607 24.3975C163.563 24.3809 163.523 24.3552 163.49 24.3221C163.457 24.289 163.431 24.2493 163.415 24.2055C163.398 24.1617 163.391 24.1149 163.394 24.0681V10.6581C163.394 5.65814 166.304 0.258142 172.744 0.258142C179.184 0.258142 182.054 5.64814 182.054 10.6581V24.0581C182.057 24.1015 182.051 24.145 182.037 24.186C182.022 24.2271 182 24.265 181.972 24.2975C181.943 24.33 181.908 24.3565 181.869 24.3755C181.83 24.3945 181.787 24.4056 181.744 24.4081ZM178.744 10.5781C178.744 6.44814 176.534 3.43814 172.744 3.43814C168.954 3.43814 166.744 6.45814 166.744 10.5781V13.3781H178.744V10.5781Z" fill="white"/>
<path d="M189.995 24.0888H187.405C187.358 24.0917 187.312 24.0847 187.268 24.0681C187.224 24.0516 187.184 24.0259 187.151 23.9928C187.118 23.9597 187.092 23.9199 187.076 23.8761C187.059 23.8323 187.052 23.7855 187.055 23.7388V0.608789C187.052 0.562065 187.059 0.515253 187.076 0.471461C187.092 0.427669 187.118 0.387901 187.151 0.354797C187.184 0.321693 187.224 0.296012 187.268 0.279459C187.312 0.262906 187.358 0.25586 187.405 0.258789H189.995C190.042 0.25586 190.089 0.262906 190.132 0.279459C190.176 0.296012 190.216 0.321693 190.249 0.354797C190.282 0.387901 190.308 0.427669 190.324 0.471461C190.341 0.515253 190.348 0.562065 190.345 0.608789V23.7388C190.348 23.7855 190.341 23.8323 190.324 23.8761C190.308 23.9199 190.282 23.9597 190.249 23.9928C190.216 24.0259 190.176 24.0516 190.132 24.0681C190.089 24.0847 190.042 24.0917 189.995 24.0888Z" fill="white"/>
<path d="M204.306 24.0891H195.696C195.65 24.092 195.603 24.085 195.559 24.0684C195.515 24.0519 195.476 24.0262 195.442 23.9931C195.409 23.96 195.384 23.9202 195.367 23.8764C195.351 23.8326 195.344 23.7858 195.346 23.7391V0.609098C195.344 0.562374 195.351 0.515562 195.367 0.47177C195.384 0.427979 195.409 0.38821 195.442 0.355106C195.476 0.322003 195.515 0.296321 195.559 0.279768C195.603 0.263215 195.65 0.256169 195.696 0.259098H204.306C207.51 0.218909 210.599 1.4477 212.9 3.67722C215.201 5.90674 216.526 8.95591 216.586 12.1591C216.578 13.7529 216.251 15.329 215.627 16.7953C215.002 18.2616 214.092 19.5888 212.948 20.6994C211.805 21.81 210.452 22.6818 208.968 23.2637C207.485 23.8457 205.9 24.1263 204.306 24.0891ZM204.306 3.3991H198.636V20.9391H204.306C206.632 20.9391 208.863 20.0151 210.508 18.3704C212.152 16.7257 213.076 14.495 213.076 12.1691C213.076 9.84315 212.152 7.61247 210.508 5.96777C208.863 4.32308 206.632 3.3991 204.306 3.3991Z" fill="white"/>
<path d="M72.0234 38.4222C72.2734 38.9639 72.3984 39.6566 72.3984 40.5003C72.3984 41.7451 72.1094 42.6826 71.5312 43.3128C70.9583 43.943 70.0807 44.2581 68.8984 44.2581H67.8594V36.8206H69.1484C69.8568 36.8206 70.4505 36.9508 70.9297 37.2113C71.4141 37.4717 71.7786 37.8753 72.0234 38.4222Z" fill="white"/>
<path d="M84.2791 38.8519L85.1072 41.5081H82.1306L82.9509 38.8519C82.9874 38.7321 83.0473 38.5316 83.1306 38.2503C83.214 37.9691 83.2999 37.6722 83.3884 37.3597C83.4822 37.042 83.5551 36.7764 83.6072 36.5628C83.6593 36.7764 83.727 37.029 83.8103 37.3206C83.8989 37.6071 83.9848 37.891 84.0681 38.1722C84.1567 38.4482 84.227 38.6748 84.2791 38.8519Z" fill="white"/>
<path d="M122.179 39.3597H120.772V36.8206H122.046C122.739 36.8206 123.244 36.917 123.562 37.1097C123.884 37.2972 124.046 37.6097 124.046 38.0472C124.046 38.4795 123.911 38.8076 123.64 39.0316C123.369 39.2503 122.882 39.3597 122.179 39.3597Z" fill="white"/>
<path d="M120.772 44.2581V41.2816H122.272C122.788 41.2816 123.192 41.3415 123.483 41.4613C123.78 41.5811 123.991 41.7477 124.116 41.9613C124.241 42.1748 124.304 42.4222 124.304 42.7035C124.304 43.1774 124.161 43.555 123.874 43.8363C123.588 44.1175 123.08 44.2581 122.351 44.2581H120.772Z" fill="white"/>
<path d="M133.669 42.5941C133.471 42.016 133.372 41.3285 133.372 40.5316C133.372 39.7295 133.471 39.042 133.669 38.4691C133.872 37.891 134.187 37.4482 134.614 37.141C135.046 36.8285 135.604 36.6722 136.286 36.6722C137.312 36.6722 138.049 37.016 138.497 37.7035C138.945 38.391 139.169 39.3337 139.169 40.5316C139.169 41.3285 139.07 42.016 138.872 42.5941C138.679 43.167 138.369 43.6097 137.942 43.9222C137.515 44.2295 136.958 44.3831 136.27 44.3831C135.593 44.3831 135.041 44.2295 134.614 43.9222C134.187 43.6097 133.872 43.167 133.669 42.5941Z" fill="white"/>
<path d="M151.073 38.8519L151.901 41.5081H148.924L149.745 38.8519C149.781 38.7321 149.841 38.5316 149.924 38.2503C150.008 37.9691 150.094 37.6722 150.182 37.3597C150.276 37.042 150.349 36.7764 150.401 36.5628C150.453 36.7764 150.521 37.029 150.604 37.3206C150.693 37.6071 150.779 37.891 150.862 38.1722C150.95 38.4482 151.021 38.6748 151.073 38.8519Z" fill="white"/>
<path d="M162.024 36.8206H162.758C163.539 36.8206 164.115 36.9352 164.485 37.1644C164.86 37.3936 165.047 37.779 165.047 38.3206C165.047 38.8415 164.873 39.2373 164.524 39.5081C164.18 39.7738 163.607 39.9066 162.805 39.9066H162.024V36.8206Z" fill="white"/>
<path d="M178.99 38.4222C179.24 38.9639 179.365 39.6566 179.365 40.5003C179.365 41.7451 179.076 42.6826 178.498 43.3128C177.925 43.943 177.048 44.2581 175.865 44.2581H174.826V36.8206H176.115C176.824 36.8206 177.417 36.9508 177.897 37.2113C178.381 37.4717 178.746 37.8753 178.99 38.4222Z" fill="white"/>
<path fill-rule="evenodd" clip-rule="evenodd" d="M186 29H61V51H186V29ZM74.1719 43.6644C74.6667 42.7998 74.9141 41.7243 74.9141 40.4378C74.9141 39.2139 74.6719 38.1878 74.1875 37.3597C73.7031 36.5264 73.0208 35.8988 72.1406 35.4769C71.2604 35.0498 70.2214 34.8363 69.0234 34.8363H65.4375V46.2581H68.6719C69.9844 46.2581 71.1068 46.042 72.0391 45.6097C72.9714 45.1722 73.6823 44.5238 74.1719 43.6644ZM85.6853 43.5394L86.5134 46.2581H89.1228L85.0759 34.7894H82.115L78.0837 46.2581H80.6931L81.5212 43.5394H85.6853ZM99.0581 44.8519C99.3862 44.3519 99.5503 43.7633 99.5503 43.0863C99.5503 42.4873 99.4383 41.9873 99.2144 41.5863C98.9904 41.18 98.6701 40.8285 98.2534 40.5316C97.842 40.2295 97.3446 39.9404 96.7612 39.6644C96.2821 39.4352 95.881 39.2347 95.5581 39.0628C95.2404 38.891 95.0008 38.7139 94.8394 38.5316C94.6831 38.3441 94.605 38.1149 94.605 37.8441C94.605 37.6149 94.6597 37.4144 94.7691 37.2425C94.8784 37.0654 95.0399 36.93 95.2534 36.8363C95.467 36.7373 95.7248 36.6878 96.0269 36.6878C96.4592 36.6878 96.8836 36.7477 97.3003 36.8675C97.717 36.9821 98.1883 37.1462 98.7144 37.3597L99.4956 35.4769C98.9071 35.2165 98.342 35.0186 97.8003 34.8831C97.2639 34.7425 96.6987 34.6722 96.105 34.6722C95.3133 34.6722 94.6258 34.8024 94.0425 35.0628C93.4644 35.318 93.0191 35.6878 92.7066 36.1722C92.3941 36.6566 92.2378 37.2399 92.2378 37.9222C92.2378 38.443 92.3264 38.891 92.5034 39.266C92.6857 39.6357 92.9175 39.9508 93.1987 40.2113C93.48 40.4717 93.7769 40.693 94.0894 40.8753C94.4019 41.0524 94.6909 41.2035 94.9566 41.3285C95.3784 41.5316 95.756 41.7217 96.0894 41.8988C96.4279 42.0758 96.6935 42.266 96.8862 42.4691C97.079 42.6722 97.1753 42.917 97.1753 43.2035C97.1753 43.4378 97.1206 43.6462 97.0112 43.8285C96.9019 44.0107 96.7248 44.154 96.48 44.2581C96.2404 44.3623 95.9227 44.4144 95.5269 44.4144C94.954 44.4144 94.3758 44.318 93.7925 44.1253C93.2092 43.9326 92.6467 43.7165 92.105 43.4769V45.7269C92.4175 45.8779 92.7456 46.0055 93.0894 46.1097C93.4383 46.2087 93.8003 46.2842 94.1753 46.3363C94.5555 46.3883 94.9435 46.4144 95.3394 46.4144C96.2352 46.4144 96.9956 46.279 97.6206 46.0081C98.2508 45.7373 98.73 45.3519 99.0581 44.8519ZM110.806 46.2581H113.22V34.8363H110.806V39.3128H106.283V34.8363H103.861V46.2581H106.283V41.3285H110.806V46.2581ZM121.905 34.8363H118.351V46.2581H122.624C123.489 46.2581 124.233 46.1279 124.858 45.8675C125.489 45.6019 125.973 45.2217 126.312 44.7269C126.65 44.2321 126.819 43.6383 126.819 42.9456C126.819 42.3467 126.726 41.8675 126.538 41.5081C126.356 41.1436 126.111 40.8675 125.804 40.68C125.496 40.4873 125.153 40.3519 124.772 40.2738V40.1956C125.147 40.1279 125.465 39.9821 125.726 39.7581C125.986 39.5342 126.184 39.2477 126.319 38.8988C126.46 38.5498 126.53 38.1592 126.53 37.7269C126.53 36.654 126.14 35.904 125.358 35.4769C124.577 35.0498 123.426 34.8363 121.905 34.8363ZM141.38 42.9378C141.598 42.2139 141.708 41.4118 141.708 40.5316C141.708 39.3441 141.512 38.3102 141.122 37.43C140.736 36.5498 140.143 35.8675 139.341 35.3831C138.544 34.8988 137.526 34.6566 136.286 34.6566C135.041 34.6566 134.015 34.8988 133.208 35.3831C132.401 35.8675 131.802 36.5498 131.411 37.43C131.026 38.305 130.833 39.3337 130.833 40.516C130.833 41.4014 130.942 42.2061 131.161 42.93C131.38 43.654 131.71 44.2764 132.153 44.7972C132.601 45.318 133.166 45.7191 133.848 46.0003C134.531 46.2764 135.338 46.4144 136.27 46.4144C137.203 46.4144 138.01 46.2764 138.692 46.0003C139.374 45.7191 139.937 45.318 140.38 44.7972C140.828 44.2764 141.161 43.6566 141.38 42.9378ZM152.479 43.5394L153.307 46.2581H155.917L151.87 34.7894H148.909L144.878 46.2581H147.487L148.315 43.5394H152.479ZM165.492 35.2113C164.821 34.9613 163.966 34.8363 162.93 34.8363H159.602V46.2581H162.024V41.8753H163.313L166.039 46.2581H168.727L165.367 41.2816C165.742 41.1097 166.091 40.8883 166.414 40.6175C166.737 40.3467 166.998 40.016 167.196 39.6253C167.394 39.2347 167.492 38.779 167.492 38.2581C167.492 37.4873 167.328 36.8493 167 36.3441C166.672 35.8389 166.17 35.4613 165.492 35.2113ZM181.139 43.6644C181.634 42.7998 181.881 41.7243 181.881 40.4378C181.881 39.2139 181.639 38.1878 181.154 37.3597C180.67 36.5264 179.988 35.8988 179.107 35.4769C178.227 35.0498 177.188 34.8363 175.99 34.8363H172.404V46.2581H175.639C176.951 46.2581 178.074 46.042 179.006 45.6097C179.938 45.1722 180.649 44.5238 181.139 43.6644Z" fill="white"/>
<path d="M31.3149 31.9698C31.3149 31.9698 31.5449 31.0498 28.9049 29.7098C27.3349 28.9098 25.8049 29.0898 24.2249 28.6098C22.6449 28.1298 18.6649 26.4598 18.6649 26.4598C17.9077 25.4735 17.0752 24.5474 16.1749 23.6898C15.3581 22.9605 14.4586 22.3295 13.4949 21.8098C13.1322 22.1285 12.8187 22.4992 12.5649 22.9098C12.2369 23.4094 11.9779 23.9509 11.7949 24.5198C11.7949 24.5198 15.1849 28.8098 18.7949 29.9498C20.4382 30.5755 22.1769 30.9137 23.9349 30.9498C24.2649 30.9498 26.5149 31.0898 27.8749 31.1198C29.0676 31.1647 30.2385 31.454 31.3149 31.9698Z" fill="white"/>
<path d="M35.0949 37.9898C35.1517 37.0752 34.9335 36.1646 34.4684 35.3751C34.0032 34.5855 33.3124 33.9533 32.4849 33.5598C33.4849 37.0798 30.3749 39.5598 30.3749 39.5598C28.8159 40.4356 27.1285 41.0599 25.3749 41.4098C21.6649 42.3898 17.3149 38.5298 17.3149 38.5298C16.217 37.6549 15.2118 36.6698 14.3149 35.5898C12.5149 33.5098 11.8949 32.5098 11.3749 30.7098C10.9479 28.9098 10.8028 27.0543 10.9449 25.2098C10.9765 24.4475 11.1709 23.7008 11.5149 23.0198C12.1058 22.2607 12.6059 21.4351 13.0049 20.5598C13.1249 19.9398 12.4349 20.0698 12.4349 20.0698C12.4349 20.0698 9.92487 21.5398 8.81487 19.5498C8.08487 18.2398 8.38487 17.0498 7.35487 16.6998C7.35487 16.6998 6.35487 20.7998 3.40487 21.5798C1.23487 22.1498 1.06487 19.7398 1.06487 19.7398C0.6252 21.3158 0.291126 22.9194 0.0648697 24.5398C-0.142689 27.2367 0.148852 29.9487 0.92487 32.5398C1.92487 36.1698 4.31487 39.3698 6.92487 41.9498C9.56521 44.7595 13.021 46.6693 16.8049 47.4098C20.2949 48.1498 25.8049 47.2998 28.5749 45.5098C29.781 44.6878 30.845 43.6745 31.7249 42.5098C34.4449 40.9598 39.2149 42.2898 39.2149 42.2898C39.3149 39.7198 35.0949 37.9898 35.0949 37.9898Z" fill="white"/>
<path d="M15.9449 3.82981C17.8849 1.59981 17.3249 0.829811 17.3249 0.829811C16.5139 1.71093 15.5301 2.41557 14.4349 2.89981C13.1749 3.43981 11.1549 4.43981 10.8449 4.53981C9.23107 5.23819 7.74946 6.20902 6.46487 7.40981C3.56487 9.81981 2.02487 15.0698 2.02487 15.0698L1.84487 15.7598C1.70204 16.5681 1.65838 17.3909 1.71487 18.2098C1.83943 19.0532 2.23625 19.8328 2.84487 20.4298C3.08487 20.7698 4.66487 19.7798 5.64487 18.2898C6.62487 16.7998 6.31487 15.9298 6.31487 15.9298L5.90487 15.1898C6.10344 14.8668 6.28372 14.533 6.44487 14.1898C6.95794 13.0577 7.38254 11.8875 7.71487 10.6898C7.71487 10.6898 10.7749 7.68981 12.0649 6.60981C13.3549 5.52981 14.7849 5.15981 15.9449 3.82981Z" fill="white"/>
<path d="M45.1449 17.5598L39.3349 7.49981L33.5349 17.5598H45.1449Z" fill="white"/>
<path d="M33.5905 8.99243C35.5708 6.88212 35.4655 3.56601 33.3551 1.58569C31.2448 -0.394636 27.9287 -0.289266 25.9484 1.82104C23.9681 3.93135 24.0735 7.24746 26.1838 9.22778C28.2941 11.2081 31.6102 11.1027 33.5905 8.99243Z" fill="white"/>
<path d="M39.9185 32.9232L46.4496 26.5006L40.027 19.9695L33.4959 26.3921L39.9185 32.9232Z" fill="white"/>
<path d="M20.0949 13.4098L16.4649 14.7898C16.5621 15.2683 16.5621 15.7614 16.4649 16.2398C17.7749 15.8998 20.1649 15.2398 21.4649 14.8698C22.7441 14.5227 24.0745 14.4043 25.3949 14.5198C25.2605 13.8647 24.8722 13.2894 24.3149 12.9198C23.8546 12.7641 23.3707 12.6897 22.8849 12.6998C21.9154 12.7383 20.9648 12.9802 20.0949 13.4098Z" fill="white"/>
<path d="M23.3149 17.3298C23.9167 17.297 24.507 17.1511 25.0549 16.8998C25.3849 16.5898 24.6249 15.2198 24.6249 15.2198C24.2918 15.1998 23.9579 15.1998 23.6249 15.2198C22.3568 15.3982 21.1035 15.6689 19.8749 16.0298L16.3149 16.8298C16.2013 17.1228 16.0536 17.4014 15.8749 17.6598L19.5749 17.7698L23.3149 17.3298Z" fill="white"/>
<path d="M16.9449 11.0198C16.5949 11.2398 15.6349 12.0198 14.9449 12.5598C15.1539 12.6922 15.3483 12.8464 15.5249 13.0198C17.0044 11.9289 18.6133 11.0253 20.3149 10.3298C21.3098 10.1564 22.3291 10.1802 23.3149 10.3998C23.3149 10.3998 23.8949 10.8398 22.8049 9.75981C21.7149 8.67981 20.9949 8.75981 20.9949 8.75981C20.5734 8.83782 20.1635 8.96886 19.7749 9.14981C18.8005 9.72478 17.8559 10.3489 16.9449 11.0198Z" fill="white"/>
<path d="M22.1949 12.0998C23.2749 11.8798 23.4049 11.9998 23.4049 11.9998C23.3447 11.7624 23.2467 11.5362 23.1149 11.3298C23.1149 11.3298 23.0349 11.0598 22.3049 10.9098C21.5223 10.8012 20.7254 10.873 19.9749 11.1198C18.5621 11.798 17.2017 12.5801 15.9049 13.4598C15.9049 13.5198 16.0049 13.5598 16.0349 13.6298C16.1381 13.8083 16.2251 13.9957 16.2949 14.1898L18.9949 13.1898C20.0367 12.7572 21.1056 12.3931 22.1949 12.0998Z" fill="white"/>
<path d="M14.5249 10.0598C13.9314 10.6369 13.3832 11.2588 12.8849 11.9198C13.3946 11.9264 13.8979 12.0352 14.3649 12.2398C15.1649 11.6098 16.4849 10.5798 17.3649 9.94981C18.3319 9.27257 19.3717 8.70571 20.4649 8.25981C20.4649 8.25981 19.9749 7.49981 19.4649 7.40981C18.9549 7.31981 18.6949 7.57981 17.5349 8.11981C16.467 8.66036 15.4582 9.31053 14.5249 10.0598Z" fill="white"/>
<path d="M26.3149 17.1998L25.5249 17.4498C25.1749 17.5598 22.5249 17.9998 21.6049 18.1598C20.1812 18.3246 18.7471 18.3814 17.3149 18.3298H15.3149C15.1557 18.4795 14.9852 18.6166 14.8049 18.7398C16.3149 19.1598 19.2949 19.9798 20.8049 20.1998C22.479 20.3882 24.1734 20.2696 25.8049 19.8498C26.5649 19.6598 26.8049 19.5898 26.9049 18.9198C26.8732 18.3025 26.6687 17.7066 26.3149 17.1998Z" fill="white"/>
<path d="M10.7149 12.5398C11.1171 12.3014 11.5566 12.1324 12.0149 12.0398C12.8597 10.9206 13.8144 9.88875 14.8649 8.95981C15.9027 8.22693 17.0076 7.5941 18.1649 7.06981C18.1649 7.06981 17.1649 6.06981 15.2249 7.06981C13.9859 7.70851 12.8929 8.59723 12.0149 9.67981C12.0149 9.67981 9.17487 13.4398 9.01487 14.5298C9.01487 14.5898 9.01487 14.6298 9.01487 14.6898C9.31739 13.7989 9.91779 13.0396 10.7149 12.5398Z" fill="white"/>
<path d="M20.3849 20.7398C20.3849 20.7398 15.0049 19.4498 14.5849 19.3098C14.4135 19.2478 14.2464 19.1743 14.0849 19.0898C13.7907 19.2223 13.4819 19.3196 13.1649 19.3798C14.7433 20.2863 16.4211 21.0078 18.1649 21.5298C19.7533 22.0666 21.4475 22.2141 23.1049 21.9598C23.4875 21.9383 23.8545 21.8003 24.1565 21.5644C24.4586 21.3285 24.6813 21.0059 24.7949 20.6398C23.3313 20.8127 21.8547 20.8461 20.3849 20.7398Z" fill="white"/>
<path d="M14.2668 18.3308C15.8457 17.3663 16.4044 15.4039 15.5148 13.9475C14.6251 12.4912 12.624 12.0925 11.0451 13.057C9.46628 14.0215 8.90756 15.984 9.7972 17.4403C10.6868 18.8966 12.688 19.2953 14.2668 18.3308Z" fill="white"/>
</svg>
